<?xml version="1.0" encoding="UTF-8"?>
<svg version="1.1" xmlns="http://www.w3.org/2000/svg" width="128" height="128">
<path d="M0 0 C1.20792206 -0.0098568 1.20792206 -0.0098568 2.44024658 -0.01991272 C5.10778906 -0.03963636 7.77527517 -0.05130838 10.44287109 -0.0612793 C11.35562176 -0.06535482 12.26837242 -0.06943035 13.2087822 -0.07362938 C18.04315718 -0.09448961 22.87750381 -0.10878957 27.71191406 -0.11816406 C32.69175956 -0.12920742 37.67115562 -0.16358344 42.65084267 -0.20333576 C46.49088335 -0.22955828 50.33081807 -0.23786106 54.1709404 -0.24144554 C56.0056498 -0.24629967 57.84035484 -0.25788001 59.67497635 -0.27648354 C78.16244527 -0.45224598 78.16244527 -0.45224598 85.09130859 4.17700195 C85.75103668 4.61690964 86.41076477 5.05681732 87.09048462 5.51005554 C88.7848654 6.69404129 90.44170699 7.93138442 92.09130859 9.17700195 C93.08130859 9.67200195 93.08130859 9.67200195 94.09130859 10.17700195 C94.58630859 11.66200195 94.58630859 11.66200195 95.09130859 13.17700195 C95.85275224 13.88964974 95.85275224 13.88964974 96.62957859 14.61669445 C99.27682128 17.44246434 98.51426175 21.55080259 98.49536133 25.23486328 C98.50222458 26.16200638 98.50908783 27.08914948 98.51615906 28.04438782 C98.53449285 31.11609115 98.53057929 34.18728677 98.52490234 37.2590332 C98.52946185 39.39271715 98.53476673 41.52639963 98.54078674 43.66007996 C98.54973143 48.13656572 98.54728026 52.61287323 98.53735352 57.08935547 C98.52587781 62.82284074 98.54604728 68.55570887 98.57527065 74.28911304 C98.59363113 78.69780889 98.59334019 83.10635692 98.58763313 87.51508141 C98.58747982 89.62856599 98.59353266 91.74206054 98.60592461 93.8555088 C98.62082494 96.81438285 98.61016318 99.77211827 98.59301758 102.73095703 C98.60751953 104.03803619 98.60751953 104.03803619 98.62231445 105.371521 C98.55682363 110.77687837 97.70212279 113.89373035 94.09130859 118.17700195 C92.08740234 119.36450195 92.08740234 119.36450195 90.09130859 120.17700195 C88.08058709 121.64806659 86.13878405 123.1889499 84.18896484 124.73950195 C79.22969415 128.13803383 74.63816454 128.47442072 68.75610352 128.4675293 C67.92941666 128.47424652 67.1027298 128.48096375 66.25099182 128.48788452 C63.52452543 128.50684487 60.79830552 128.51078784 58.07177734 128.51293945 C56.16994629 128.51936919 54.26811622 128.52609768 52.36628723 128.53311157 C48.3809683 128.54507974 44.39573602 128.54879291 40.41040039 128.54760742 C35.31614383 128.54740436 30.22244593 128.57469519 25.12832165 128.60915184 C21.1999509 128.63144544 17.27171403 128.63544419 13.34328651 128.63438797 C11.46589548 128.63674065 9.58850057 128.64554537 7.7111721 128.6610527 C5.07862191 128.68076088 2.44726884 128.67485591 -0.18530273 128.6628418 C-0.95284882 128.67408081 -1.7203949 128.68531982 -2.51119995 128.69689941 C-11.97593892 128.58774255 -19.2011061 123.12119505 -26.22119141 117.23950195 C-30.27548004 112.28426029 -30.19859429 106.59871078 -30.16748047 100.51293945 C-30.17098511 99.66338684 -30.17448975 98.81383423 -30.17810059 97.9385376 C-30.18687054 95.14294148 -30.1810855 92.34760044 -30.17431641 89.55200195 C-30.17566442 87.60196891 -30.17760609 85.65193619 -30.18011475 83.7019043 C-30.18305959 79.62000318 -30.1787889 75.53818974 -30.16943359 71.45629883 C-30.15803948 66.23087586 -30.16460236 61.00565836 -30.17657852 55.78024292 C-30.18381436 51.7550299 -30.18150126 47.72986538 -30.17632294 43.70465088 C-30.17499121 41.77817765 -30.17661741 39.85169998 -30.18128204 37.92523193 C-30.18637558 35.23039119 -30.17859733 32.53588068 -30.16748047 29.84106445 C-30.17152893 29.04919739 -30.17557739 28.25733032 -30.17974854 27.44146729 C-30.14556574 22.95607437 -29.58071825 19.40529967 -27.90869141 15.17700195 C-27.57869141 14.18700195 -27.24869141 13.19700195 -26.90869141 12.17700195 C-26.24869141 11.84700195 -25.58869141 11.51700195 -24.90869141 11.17700195 C-24.57869141 10.18700195 -24.24869141 9.19700195 -23.90869141 8.17700195 C-22.25619653 7.47594352 -20.58501558 6.81899844 -18.90869141 6.17700195 C-16.82964169 4.93281431 -14.80198887 3.62649854 -12.77587891 2.2980957 C-8.65666929 -0.17515359 -4.64311454 0.01641589 0 0 Z " fill="#3E4550" transform="translate(29.90869140625,-0.177001953125)"/>
<path d="M0 0 C2.17753173 0.88886131 4.36095636 1.7623385 6.54443359 2.63647461 C10.0423873 4.06113787 13.52017658 5.53160689 17 7 C17.27503513 11.90678063 17.47287884 16.80894906 17.60424805 21.72167969 C17.65906812 23.38653797 17.73376561 25.05087915 17.82983398 26.71386719 C18.6896716 41.9978257 18.6896716 41.9978257 13.25386047 48.2855835 C10.94056017 50.64068402 8.4670047 52.80799668 6 55 C4.29483519 56.90517847 2.71889801 58.87243273 1.125 60.875 C0.40441406 61.76574219 -0.31617188 62.65648438 -1.05859375 63.57421875 C-2.24206832 65.05296665 -3.42254838 66.53412595 -4.59765625 68.01953125 C-5.69076275 69.3803373 -6.83818746 70.69736169 -8 72 C-8.66 72 -9.32 72 -10 72 C-11.3327188 70.53309441 -12.58913869 68.99677499 -13.8125 67.4375 C-18.25767966 61.87199051 -22.87556881 56.48542097 -27.56958008 51.12866211 C-28.10091553 50.52030518 -28.63225098 49.91194824 -29.1796875 49.28515625 C-29.65132324 48.74769775 -30.12295898 48.21023926 -30.60888672 47.65649414 C-31.0679541 47.10985107 -31.52702148 46.56320801 -32 46 C-32.54712646 45.43821045 -33.09425293 44.8764209 -33.65795898 44.29760742 C-35.61374713 40.94924973 -35.37121369 37.71753372 -35.29296875 33.953125 C-35.28872391 33.18192322 -35.28447906 32.41072144 -35.28010559 31.6161499 C-35.26335383 29.16040685 -35.22570939 26.70549371 -35.1875 24.25 C-35.17244857 22.58204313 -35.15876097 20.91407335 -35.14648438 19.24609375 C-35.11346194 15.16374422 -35.06170484 11.08201268 -35 7 C-34.21061035 6.67386719 -33.4212207 6.34773438 -32.60791016 6.01171875 C-25.92817143 3.26233102 -25.92817143 3.26233102 -19.3359375 0.3125 C-11.63189772 -3.10248333 -7.59670537 -3.42977938 0 0 Z " fill="#FDFDFD" transform="translate(73,30)"/>
<path d="M0 0 C3 1 3 1 3 1 Z " fill="#151515" transform="translate(109,0)"/>
<path d="M0 0 C2 1 2 1 2 1 Z " fill="#2A6A6A" transform="translate(110,127)"/>
<path d="M0 0 C2 1 2 1 2 1 Z " fill="#1F1F1F" transform="translate(16,127)"/>
<path d="M0 0 C2 1 2 1 2 1 Z " fill="#2A2A2A" transform="translate(112,126)"/>
<path d="M0 0 C2 1 2 1 2 1 Z " fill="#2A2A2A" transform="translate(14,126)"/>
<path d="M0 0 C2 1 2 1 2 1 Z " fill="#3F3F3F" transform="translate(115,124)"/>
<path d="M0 0 C2 1 2 1 2 1 Z " fill="#3F3F3F" transform="translate(10,123)"/>
<path d="" fill="#4A4A4A" transform="translate(0,0)"/>
<path d="" fill="#7F7F7F" transform="translate(0,0)"/>
<path d="M0 0 C2 1 2 1 2 1 Z " fill="#3F3F3F" transform="translate(9,5)"/>
<path d="M0 0 C2 1 2 1 2 1 Z " fill="#3F3F3F" transform="translate(116,4)"/>
<path d="M0 0 C2 1 2 1 2 1 Z " fill="#3F3F7F" transform="translate(113,2)"/>
<path d="M0 0 C2 1 2 1 2 1 Z " fill="#2A2A2A" transform="translate(13,2)"/>
<path d="M0 0 C2 1 2 1 2 1 Z " fill="#3F3F3F" transform="translate(15,1)"/>
<path d="M0 0 C2 1 2 1 2 1 Z " fill="#555555" transform="translate(17,0)"/>
<path d="" fill="#555555" transform="translate(0,0)"/>
<path d="" fill="#555555" transform="translate(0,0)"/>
<path d="" fill="#3F3F3F" transform="translate(0,0)"/>
<path d="" fill="#555555" transform="translate(0,0)"/>
<path d="" fill="#3F3F3F" transform="translate(0,0)"/>
<path d="" fill="#555555" transform="translate(0,0)"/>
<path d="" fill="#3F3F3F" transform="translate(0,0)"/>
<path d="" fill="#555555" transform="translate(0,0)"/>
<path d="" fill="#555555" transform="translate(0,0)"/>
<path d="" fill="#555555" transform="translate(0,0)"/>
<path d="" fill="#3F3F3F" transform="translate(0,0)"/>
<path d="" fill="#555555" transform="translate(0,0)"/>
<path d="" fill="#3F3F3F" transform="translate(0,0)"/>
<path d="" fill="#3F3F3F" transform="translate(0,0)"/>
<path d="" fill="#3F3F3F" transform="translate(0,0)"/>
<path d="" fill="#555555" transform="translate(0,0)"/>
<path d="" fill="#555555" transform="translate(0,0)"/>
<path d="" fill="#7F7F7F" transform="translate(0,0)"/>
<path d="" fill="#555555" transform="translate(0,0)"/>
<path d="" fill="#000000" transform="translate(0,0)"/>
<path d="" fill="#555555" transform="translate(0,0)"/>
<path d="" fill="#3F3F3F" transform="translate(0,0)"/>
<path d="" fill="#555555" transform="translate(0,0)"/>
<path d="" fill="#555555" transform="translate(0,0)"/>
<path d="" fill="#555555" transform="translate(0,0)"/>
</svg>
